STARTFONT 2.1
COMMENT
COMMENT Converted from OpenType font "Q:\font stuff\winfont\MicroTechnicExtOutline.otf" by "otf2bdf 3.0".
COMMENT
FONT -FreeType-Micro TechnicExtOutline-Medium-R-Normal--32-320-72-72-P-242-ISO10646-1
SIZE 32 72 72
FONTBOUNDINGBOX 58 43 -3 -8
STARTPROPERTIES 19
FOUNDRY "FreeType"
FAMILY_NAME "Micro TechnicExtOutline"
WEIGHT_NAME "Medium"
SLANT "R"
SETWIDTH_NAME "Normal"
ADD_STYLE_NAME ""
PIXEL_SIZE 32
POINT_SIZE 320
RESOLUTION_X 72
RESOLUTION_Y 72
SPACING "P"
AVERAGE_WIDTH 242
CHARSET_REGISTRY "ISO10646"
CHARSET_ENCODING "1"
FONT_ASCENT 34
FONT_DESCENT 7
COPYRIGHT "Copyright Copr.1992 Image Club Graphics, Inc."
_OTF_FONTFILE "Q:\font stuff\winfont\MicroTechnicExtOutline.otf"
_OTF_PSNAME "MicroTechnicExtOutline"
ENDPROPERTIES
CHARS 203
STARTCHAR 0020
ENCODING 32
SWIDTH 281 0
DWIDTH 9 0
BBX 0 0 0 0
BITMAP
ENDCHAR
STARTCHAR 0021
ENCODING 33
SWIDTH 218 0
DWIDTH 7 0
BBX 5 26 1 0
BITMAP
F8
88
88
88
88
88
88
88
88
88
88
88
88
88
88
88
88
88
F8
00
00
F8
88
88
88
F8
ENDCHAR
STARTCHAR 0022
ENCODING 34
SWIDTH 343 0
DWIDTH 11 0
BBX 9 9 1 17
BITMAP
F780
9480
9480
9480
9480
9480
9480
9480
F780
ENDCHAR
STARTCHAR 0023
ENCODING 35
SWIDTH 812 0
DWIDTH 26 0
BBX 24 26 1 0
BITMAP
01E0F0
012090
012090
012090
012110
012110
012110
3E3F1F
200001
400001
3E3F1F
024120
024120
044220
044220
044220
7C7E3E
400002
800002
7C7E3E
088240
088240
088240
088440
088440
0F83C0
ENDCHAR
STARTCHAR 0024
ENCODING 36
SWIDTH 1031 0
DWIDTH 33 0
BBX 30 32 1 -3
BITMAP
00078000
00048000
00048000
0FFCFFC0
30000030
60000008
4FFCFFC8
90048064
90048024
90048024
9004803C
90048000
98048000
88048000
47FCFFE0
60000018
30000008
0FFCFF8C
00048044
00048024
F0048024
90048024
90048024
90048024
88048044
87FCFF88
40000010
30000020
0FFCFFC0
00048000
00048000
00078000
ENDCHAR
STARTCHAR 0025
ENCODING 37
SWIDTH 1437 0
DWIDTH 46 0
BBX 44 26 1 0
BITMAP
1FFC07000000
300305000000
400085000000
8FFC85000000
B00645000000
A00245000000
A00245000000
A00245000000
A00245000000
A0024503FF00
A002490E00C0
A00249080020
A0024913FFA0
D804491600D0
47F889140050
300189140050
1FFE09140050
000009140050
000009140050
000009140050
00000A140050
00000A140050
00000A120090
00000A09FF20
00000A040060
00000603FF80
ENDCHAR
STARTCHAR 0026
ENCODING 38
SWIDTH 1093 0
DWIDTH 35 0
BBX 33 26 1 0
BITMAP
01FFFF0000
060000C000
0C00002000
08FFFE3000
1100011000
1200009000
1200009000
1200009000
110000F000
1100000000
08C0000000
0C30000000
300C000000
43C3807800
4830604800
900C184800
9003064800
9000C1C800
9000300800
90000C0800
8800030600
4E00010180
41FFFE0880
2000003480
1800004280
07FFFF8180
ENDCHAR
STARTCHAR 0027
ENCODING 39
SWIDTH 187 0
DWIDTH 6 0
BBX 4 9 1 17
BITMAP
F0
90
90
90
90
90
90
90
F0
ENDCHAR
STARTCHAR 0028
ENCODING 40
SWIDTH 375 0
DWIDTH 12 0
BBX 10 26 1 0
BITMAP
0FC0
3040
4040
4FC0
8800
9000
9000
9000
9000
9000
9000
9000
9000
9000
9000
9000
9000
9000
9000
9000
9000
8800
47C0
4040
2040
1FC0
ENDCHAR
STARTCHAR 0029
ENCODING 41
SWIDTH 375 0
DWIDTH 12 0
BBX 10 26 1 0
BITMAP
FC00
8300
8080
FC80
0640
0240
0240
0240
0240
0240
0240
0240
0240
0240
0240
0240
0240
0240
0240
0240
0240
0440
F880
8080
8100
FE00
ENDCHAR
STARTCHAR 002A
ENCODING 42
SWIDTH 593 0
DWIDTH 19 0
BBX 16 13 1 12
BITMAP
0830
1450
0C50
0AA0
05C0
FE7F
8001
FE7F
05C0
0AA0
0C50
1430
0830
ENDCHAR
STARTCHAR 002B
ENCODING 43
SWIDTH 531 0
DWIDTH 17 0
BBX 15 15 1 0
BITMAP
0380
0280
0280
0280
0280
0280
FEFE
8002
FEFE
0280
0280
0280
0280
0280
0380
ENDCHAR
STARTCHAR 002C
ENCODING 44
SWIDTH 250 0
DWIDTH 8 0
BBX 6 10 1 -5
BITMAP
FC
84
84
84
C4
24
C4
84
88
F0
ENDCHAR
STARTCHAR 002D
ENCODING 45
SWIDTH 468 0
DWIDTH 15 0
BBX 13 4 1 10
BITMAP
FFF8
8008
8008
FFF8
ENDCHAR
STARTCHAR 002E
ENCODING 46
SWIDTH 218 0
DWIDTH 7 0
BBX 5 5 1 0
BITMAP
F8
88
88
88
F8
ENDCHAR
STARTCHAR 002F
ENCODING 47
SWIDTH 687 0
DWIDTH 22 0
BBX 20 26 1 0
BITMAP
000070
0000A0
0000A0
000140
000280
000280
000500
000A00
000A00
001400
002800
004800
005000
00A000
012000
014000
028000
048000
050000
0A0000
120000
140000
280000
480000
500000
E00000
ENDCHAR
STARTCHAR 0030
ENCODING 48
SWIDTH 968 0
DWIDTH 31 0
BBX 29 26 1 0
BITMAP
07FFFE00
1C0001C0
30000060
63FFFE30
4C000110
C8000098
88000048
90000048
90000048
90000048
90000048
90000048
90000048
90000048
90000048
90000048
90000048
90000048
90000048
88000048
48000098
46000190
41FFFE30
20000020
180000C0
07FFFF00
ENDCHAR
STARTCHAR 0031
ENCODING 49
SWIDTH 531 0
DWIDTH 17 0
BBX 15 26 1 0
BITMAP
003E
0042
0182
0212
0472
0892
1112
2212
4412
9812
6012
0012
0012
0012
0012
0012
0012
0012
0012
0012
0012
0012
0012
0012
0012
001E
ENDCHAR
STARTCHAR 0032
ENCODING 50
SWIDTH 968 0
DWIDTH 31 0
BBX 28 26 1 0
BITMAP
03FFFE00
1C0001C0
20000060
43FFF820
4C000710
98000110
90000090
90000090
90000090
90000090
F0000090
00000090
00000110
0007FE20
0FF80040
30000080
40000700
47FFF800
8C000000
98000000
90000000
90000000
90000000
9FFFFFF0
80000010
FFFFFFF0
ENDCHAR
STARTCHAR 0033
ENCODING 51
SWIDTH 937 0
DWIDTH 30 0
BBX 28 26 1 0
BITMAP
0FFFFF00
300000C0
40000020
47FFFE30
98000190
90000090
90000090
90000090
F0000090
00000090
00000110
003FFE20
00200040
00200040
003FFF20
00000190
00000090
F0000090
90000090
90000090
90000090
90000090
48000110
47FFFC20
30000040
0FFFFF80
ENDCHAR
STARTCHAR 0034
ENCODING 52
SWIDTH 968 0
DWIDTH 31 0
BBX 29 26 1 0
BITMAP
00003F00
0000C100
00010100
00020900
000C3900
00184900
00218900
00420900
01840900
02080900
04300900
08400900
30800900
43000900
84000900
88000900
90000900
9FFFF9F8
80000008
80000008
FFFFF9F8
00000900
00000900
00000900
00000900
00000F00
ENDCHAR
STARTCHAR 0035
ENCODING 53
SWIDTH 937 0
DWIDTH 30 0
BBX 28 26 1 0
BITMAP
FFFFFFE0
80000020
80000020
9FFFFFE0
90000000
90000000
90000000
90000000
91FFFE00
96000380
980000C0
8FFFFC60
8C000730
90000130
F0000090
00000090
00000090
F0000090
90000090
90000090
90000090
900000B0
4E000320
43FFFC40
20000180
1FFFFE00
ENDCHAR
STARTCHAR 0036
ENCODING 54
SWIDTH 937 0
DWIDTH 30 0
BBX 27 26 1 0
BITMAP
03FFFC00
1C000300
20000080
23FFFE40
4C000120
58000120
90000120
90000120
900001E0
90000000
A3FFFE00
AE000780
980000C0
93FFFC60
8C000620
88000120
90000120
90000120
90000120
90000120
98000120
4C000620
43FFF840
20000080
10000300
0FFFFC00
ENDCHAR
STARTCHAR 0037
ENCODING 55
SWIDTH 937 0
DWIDTH 30 0
BBX 28 26 1 0
BITMAP
FFFFFFF0
80000010
80000010
FFFFFF90
00000110
00000210
00000420
00000C60
00000840
00001080
00002100
00004200
00008400
00018800
00010800
00021000
00042000
00084000
00108000
00310000
00220000
00440000
00840000
01080000
02100000
03E00000
ENDCHAR
STARTCHAR 0038
ENCODING 56
SWIDTH 937 0
DWIDTH 30 0
BBX 28 26 1 0
BITMAP
0FFFFF00
300001C0
40000060
47FFFC20
88000310
90000110
90000110
90000110
90000110
90000110
88000220
47FFFC20
300000C0
300000C0
47FFFC20
8C000610
98000110
90000110
90000110
90000110
90000110
90000110
88000210
47FFFC20
20000040
1FFFFF80
ENDCHAR
STARTCHAR 0039
ENCODING 57
SWIDTH 937 0
DWIDTH 30 0
BBX 28 26 1 0
BITMAP
07FFFC00
18000380
20000040
47FFFC20
8C000330
98000190
90000090
90000090
90000090
90000090
90000090
90000110
4FFFFE10
60000190
38000690
07FFF890
00000090
00000090
F0000090
90000090
90000090
98000310
47FFFC20
40000020
20000080
1FFFFF00
ENDCHAR
STARTCHAR 003A
ENCODING 58
SWIDTH 218 0
DWIDTH 7 0
BBX 5 18 1 0
BITMAP
F8
88
88
88
88
F8
00
00
00
00
00
00
00
F8
88
88
88
F8
ENDCHAR
STARTCHAR 003B
ENCODING 59
SWIDTH 250 0
DWIDTH 8 0
BBX 6 23 1 -5
BITMAP
FC
84
84
84
84
FC
00
00
00
00
00
00
00
FC
84
84
84
C4
24
C4
88
90
E0
ENDCHAR
STARTCHAR 003C
ENCODING 60
SWIDTH 625 0
DWIDTH 20 0
BBX 19 21 1 0
BITMAP
000020
0001E0
000620
001820
00E0C0
030700
0C1800
706000
838000
8C0000
840000
830000
60C000
183000
060C00
018300
0060C0
001820
000620
0001A0
000060
ENDCHAR
STARTCHAR 003D
ENCODING 61
SWIDTH 562 0
DWIDTH 18 0
BBX 16 10 1 4
BITMAP
FFFF
8001
8001
FFFF
0000
0000
FFFF
8001
8001
FFFF
ENDCHAR
STARTCHAR 003E
ENCODING 62
SWIDTH 656 0
DWIDTH 21 0
BBX 19 21 1 -1
BITMAP
800000
E00000
9C0000
830000
60C000
183800
070600
00C180
003060
000E20
000220
000C20
0030C0
00C300
070C00
183000
60C000
830000
8C0000
B00000
C00000
ENDCHAR
STARTCHAR 003F
ENCODING 63
SWIDTH 812 0
DWIDTH 26 0
BBX 24 26 1 0
BITMAP
0FFFF0
30001C
400006
47FFE2
8C0011
900009
900009
900009
900009
F00009
000009
000012
0003E2
003C0C
004070
008F80
009000
009000
00F000
000000
000000
00F000
009000
009000
009000
00F000
ENDCHAR
STARTCHAR 0040
ENCODING 64
SWIDTH 781 0
DWIDTH 25 0
BBX 24 25 0 -1
BITMAP
007F00
01FFC0
0781F0
0A0068
140014
28000A
30000A
503EC5
50D745
A12345
A24245
A24285
A4C285
A48486
A4848A
94890A
568B14
5A971F
29793A
24F0F2
130024
09C0C8
067F10
0180C0
007F00
ENDCHAR
STARTCHAR 0041
ENCODING 65
SWIDTH 1093 0
DWIDTH 35 0
BBX 33 26 1 0
BITMAP
0003E00000
0004100000
0008100000
0008880000
0011880000
0012440000
0022220000
0024220000
0048110000
0088110000
0090088000
0110088000
0120044000
0220044000
0240022000
0440011000
0480011000
08FFFF8800
1000000800
1000000400
21FFFFE400
2200002200
4400001100
4400001100
8800000880
F000000780
ENDCHAR
STARTCHAR 0042
ENCODING 66
SWIDTH 968 0
DWIDTH 31 0
BBX 29 26 1 0
BITMAP
FFFFFF00
800000C0
80000020
8FFFFF30
88000190
88000090
88000090
88000090
88000090
88000090
88000110
8FFFFF20
800000C0
80000060
8FFFFF90
880000C8
88000048
88000048
88000048
88000048
88000048
88000088
8FFFFF10
80000010
80000060
FFFFFF80
ENDCHAR
STARTCHAR 0043
ENCODING 67
SWIDTH 968 0
DWIDTH 31 0
BBX 29 26 1 0
BITMAP
03FFFF00
1C0000C0
30000030
61FFFE10
46000198
48000048
C8000048
90000048
90000048
90000078
90000000
90000000
90000000
90000000
90000000
90000000
90000000
90000078
90000048
90000048
48000048
4C000048
43FFFF90
20000010
18000020
07FFFFC0
ENDCHAR
STARTCHAR 0044
ENCODING 68
SWIDTH 1031 0
DWIDTH 33 0
BBX 31 26 1 0
BITMAP
FFFFFF80
800000E0
80000010
80000008
9FFFFF04
90000184
90000046
90000042
90000022
90000022
90000022
90000022
90000022
90000022
90000022
90000022
90000022
90000022
90000022
90000022
90000044
90000184
9FFFFE08
80000010
80000060
FFFFFF80
ENDCHAR
STARTCHAR 0045
ENCODING 69
SWIDTH 843 0
DWIDTH 27 0
BBX 25 26 1 0
BITMAP
FFFFFF00
80000100
80000100
80000100
8FFFFF00
88000000
88000000
88000000
88000000
88000000
88000000
8FFFFF00
80000100
80000100
8FFFFF00
88000000
88000000
88000000
88000000
88000000
88000000
88000000
8FFFFF80
80000080
80000080
FFFFFF80
ENDCHAR
STARTCHAR 0046
ENCODING 70
SWIDTH 812 0
DWIDTH 26 0
BBX 23 26 1 0
BITMAP
FFFFFE
800002
800002
8FFFFE
880000
880000
880000
880000
880000
880000
880000
8FFFFE
800002
800002
8FFFFE
880000
880000
880000
880000
880000
880000
880000
880000
880000
880000
F80000
ENDCHAR
STARTCHAR 0047
ENCODING 71
SWIDTH 1000 0
DWIDTH 32 0
BBX 30 26 1 0
BITMAP
03FFFF00
1C0000E0
20000030
43FFFC08
4C000388
880000C4
90000044
90000044
9000007C
90000000
90000000
90000000
90000000
9003FFFC
90020004
90020004
9003FFC4
90000044
90000044
90000044
88000044
4E000088
43FFFF08
20000010
18000060
07FFFF80
ENDCHAR
STARTCHAR 0048
ENCODING 72
SWIDTH 1000 0
DWIDTH 32 0
BBX 30 26 1 0
BITMAP
F000003C
90000024
90000024
90000024
90000024
90000024
90000024
90000024
90000024
90000024
90000024
9FFFFFE4
80000004
80000004
9FFFFFE4
90000024
90000024
90000024
90000024
90000024
90000024
90000024
90000024
90000024
90000024
F000003C
ENDCHAR
STARTCHAR 0049
ENCODING 73
SWIDTH 218 0
DWIDTH 7 0
BBX 4 26 1 0
BITMAP
F0
90
90
90
90
90
90
90
90
90
90
90
90
90
90
90
90
90
90
90
90
90
90
90
90
F0
ENDCHAR
STARTCHAR 004A
ENCODING 74
SWIDTH 781 0
DWIDTH 25 0
BBX 24 26 0 0
BITMAP
00000F
000009
000009
000009
000009
000009
000009
000009
000009
000009
000009
000009
000009
000009
000009
000009
F80009
880009
880009
880009
880009
840011
43FFE2
400002
30000C
0FFFF0
ENDCHAR
STARTCHAR 004B
ENCODING 75
SWIDTH 1000 0
DWIDTH 32 0
BBX 31 26 1 0
BITMAP
F00001FC
90000610
90000820
900030C0
90004100
90018600
90030800
90041000
90186000
90208000
90C30000
9F040000
80180000
80100000
9F8C0000
90420000
90318000
90084000
90063000
90010800
90008600
90006100
900010C0
90000C20
90000218
F00001FE
ENDCHAR
STARTCHAR 004C
ENCODING 76
SWIDTH 781 0
DWIDTH 25 0
BBX 24 26 1 0
BITMAP
F80000
880000
880000
880000
880000
880000
880000
880000
880000
880000
880000
880000
880000
880000
880000
880000
880000
880000
880000
880000
880000
880000
8FFFFF
800001
800001
FFFFFF
ENDCHAR
STARTCHAR 004D
ENCODING 77
SWIDTH 1312 0
DWIDTH 42 0
BBX 40 26 1 0
BITMAP
FF000000FF
8100000101
8080000101
8880000211
8840000231
8C20000451
8A20000891
8A10000891
8910001111
8888001111
8884002211
8844002411
8822004411
8822008811
8811008811
8808811011
8808812011
8804422011
8802424011
8802244011
8801188011
8801090011
8800810011
8800420011
8800420011
F8003C001F
ENDCHAR
STARTCHAR 004E
ENCODING 78
SWIDTH 1031 0
DWIDTH 33 0
BBX 31 26 1 0
BITMAP
FC00003E
82000022
81000022
90800022
98400022
98200022
94100022
92100022
91080022
90840022
90420022
90210022
90108022
90084022
90042022
90021022
90010822
90008422
90004422
90002222
90001122
900008A2
90000462
90000202
90000102
F00000FE
ENDCHAR
STARTCHAR 004F
ENCODING 79
SWIDTH 1062 0
DWIDTH 34 0
BBX 31 26 1 0
BITMAP
03FFFFC0
1C000038
2000000C
43FFFF84
44000064
88000022
88000012
90000012
90000012
90000012
90000012
90000012
90000012
90000012
90000012
90000012
90000012
90000012
90000012
90000012
90000022
48000064
47FFFF84
40000008
30000010
0FFFFFE0
ENDCHAR
STARTCHAR 0050
ENCODING 80
SWIDTH 937 0
DWIDTH 30 0
BBX 28 26 1 0
BITMAP
FFFFFF00
800000C0
80000060
9FFFFE30
90000310
90000090
90000090
90000090
90000090
90000090
90000090
90000110
9FFFFE20
80000060
800000C0
9FFFFF00
90000000
90000000
90000000
90000000
90000000
90000000
90000000
90000000
90000000
F0000000
ENDCHAR
STARTCHAR 0051
ENCODING 81
SWIDTH 1156 0
DWIDTH 37 0
BBX 34 26 1 0
BITMAP
07FFFFE000
1800001800
3000000400
61FFFFE600
4600003200
4800001200
8800000900
9000000900
9000000900
9000000900
9000000900
9000000900
9000000900
9000000900
9000180900
9000260900
9000210900
9000188900
9000046900
9000031900
9000008100
4800006100
4600001180
23FFFFFA40
1800001D80
07FFFFE000
ENDCHAR
STARTCHAR 0052
ENCODING 82
SWIDTH 937 0
DWIDTH 30 0
BBX 28 26 1 0
BITMAP
FFFFFF00
800000C0
80000040
9FFFFE20
90000110
90000090
90000090
90000090
90000090
90000090
90000090
90000090
90000110
9FFFFE20
80000060
9FFFFE80
90000140
900000A0
90000090
90000090
90000090
90000090
90000090
90000090
90000090
F00000F0
ENDCHAR
STARTCHAR 0053
ENCODING 83
SWIDTH 937 0
DWIDTH 30 0
BBX 27 26 1 0
BITMAP
07FFFC00
18000300
20000080
43FFF840
8C000620
90000320
90000120
90000120
900001E0
90000000
8C000000
47FFFE00
60000180
38000040
07FFFC40
00000320
000001A0
F00000A0
900000A0
900000A0
900001A0
8C000320
43FFFC40
40000040
30000180
0FFFFE00
ENDCHAR
STARTCHAR 0054
ENCODING 84
SWIDTH 906 0
DWIDTH 29 0
BBX 29 26 0 0
BITMAP
FFFFFFF8
80000008
80000008
FFFCFFF8
00048000
00048000
00048000
00048000
00048000
00048000
00048000
00048000
00048000
00048000
00048000
00048000
00048000
00048000
00048000
00048000
00048000
00048000
00048000
00048000
00048000
00078000
ENDCHAR
STARTCHAR 0055
ENCODING 85
SWIDTH 968 0
DWIDTH 31 0
BBX 29 26 1 0
BITMAP
F0000078
90000048
90000048
90000048
90000048
90000048
90000048
90000048
90000048
90000048
90000048
90000048
90000048
90000048
90000048
90000048
90000048
90000048
90000048
90000048
90000048
900000C8
4C000188
43FFFE10
20000060
1FFFFF80
ENDCHAR
STARTCHAR 0056
ENCODING 86
SWIDTH 1031 0
DWIDTH 33 0
BBX 32 26 1 0
BITMAP
F000001F
90000012
88000022
48000024
44000044
24000048
22000088
11000090
11000110
08800120
08800240
04400240
02400480
02200480
01200900
01101100
00901200
00882200
00442400
00444400
00224800
00228800
00119000
00081000
00082000
0007E000
ENDCHAR
STARTCHAR 0057
ENCODING 87
SWIDTH 1687 0
DWIDTH 54 0
BBX 53 26 0 0
BITMAP
780000F8000078
88000084000088
44000104000090
44000104000090
22000222000110
22000262000120
12000451000220
11000451000240
09000489000440
08800888800480
08800904800880
04401104400900
04401204401100
02202202201200
02202202202200
01102401202200
01104401104400
00904801104400
00888800884800
00889000888800
00451000449000
00451000451000
00222000252000
00202000222000
00104000202000
000FC0001FC000
ENDCHAR
STARTCHAR 0058
ENCODING 88
SWIDTH 1093 0
DWIDTH 35 0
BBX 33 26 1 0
BITMAP
7E00003F00
4200006200
2100004400
1080008800
0840011000
0420022000
0210044000
0108088000
0084110000
0042220000
0021440000
0010880000
000C100000
0008080000
0010840000
0021420000
0042210000
0084108000
0108084000
0210042000
0420031000
0840008800
1080004400
2100002200
4200001100
FC00000F80
ENDCHAR
STARTCHAR 0059
ENCODING 89
SWIDTH 1031 0
DWIDTH 33 0
BBX 32 26 1 0
BITMAP
F800003F
8C000042
46000044
23000088
11800110
08800220
04400440
02200880
01101100
00882200
00444600
00228400
00118800
00081000
00042000
00024000
00024000
00024000
00024000
00024000
00024000
00024000
00024000
00024000
00024000
0003C000
ENDCHAR
STARTCHAR 005A
ENCODING 90
SWIDTH 937 0
DWIDTH 30 0
BBX 29 26 0 0
BITMAP
FFFFFFF8
80000008
80000008
FFFFFE08
00000430
00001860
00002080
00004100
00008200
00010400
00020800
00043000
00084000
00108000
00210000
00C60000
01080000
02100000
04200000
08400000
11800000
22000000
C3FFFFF8
80000008
80000008
FFFFFFF8
ENDCHAR
STARTCHAR 005B
ENCODING 91
SWIDTH 343 0
DWIDTH 11 0
BBX 11 26 0 0
BITMAP
FFE0
8020
8020
8FE0
8800
8800
8800
8800
8800
8800
8800
8800
8800
8800
8800
8800
8800
8800
8800
8800
8800
8800
8FE0
8020
8020
FFE0
ENDCHAR
STARTCHAR 005C
ENCODING 92
SWIDTH 656 0
DWIDTH 21 0
BBX 20 26 0 0
BITMAP
E00000
900000
480000
280000
240000
120000
0A0000
090000
048000
028000
024000
012000
00A000
009000
004800
002800
001400
001200
000A00
000500
000480
000280
000140
000120
0000A0
000070
ENDCHAR
STARTCHAR 005D
ENCODING 93
SWIDTH 375 0
DWIDTH 12 0
BBX 10 26 1 0
BITMAP
FFC0
8040
8040
FC40
0440
0440
0440
0440
0440
0440
0440
0440
0440
0440
0440
0440
0440
0440
0440
0440
0440
0440
FC40
8040
8040
FFC0
ENDCHAR
STARTCHAR 005E
ENCODING 94
SWIDTH 343 0
DWIDTH 11 0
BBX 10 5 1 21
BITMAP
3F00
4080
8880
9480
E3C0
ENDCHAR
STARTCHAR 005F
ENCODING 95
SWIDTH 687 0
DWIDTH 22 0
BBX 22 2 0 -5
BITMAP
FFFFFC
FFFFFC
ENDCHAR
STARTCHAR 0060
ENCODING 96
SWIDTH 250 0
DWIDTH 8 0
BBX 6 7 1 19
BITMAP
F0
88
88
48
24
14
1C
ENDCHAR
STARTCHAR 0061
ENCODING 97
SWIDTH 1093 0
DWIDTH 35 0
BBX 33 26 1 0
BITMAP
0003E00000
0004100000
0008100000
0008880000
0011480000
0012440000
0022220000
0024220000
0048110000
0088110000
0090088000
0110048000
0120044000
0220024000
0240022000
0440011000
0480011000
08FFFF8800
1000000800
1000000400
21FFFFE400
2200002200
4400001100
4400001100
8800000880
F000000780
ENDCHAR
STARTCHAR 0062
ENCODING 98
SWIDTH 968 0
DWIDTH 31 0
BBX 29 26 1 0
BITMAP
FFFFFF80
800000C0
80000020
8FFFFC20
90000310
90000110
90000090
90000090
90000090
90000110
90000120
8FFFFE20
800000C0
80000030
8FFFFF10
90000088
90000048
90000048
90000048
90000048
90000048
90000088
8FFFFF10
80000010
80000060
FFFFFF80
ENDCHAR
STARTCHAR 0063
ENCODING 99
SWIDTH 968 0
DWIDTH 31 0
BBX 29 27 1 0
BITMAP
03FFFF00
0C0000C0
30000020
20000010
47FFFF10
48000088
88000048
88000048
90000048
90000078
90000000
90000000
90000000
90000000
90000000
90000000
90000000
90000000
90000078
90000048
88000048
48000048
44000088
43E00708
201FF810
18000020
07FFFFC0
ENDCHAR
STARTCHAR 0064
ENCODING 100
SWIDTH 1031 0
DWIDTH 33 0
BBX 31 26 1 0
BITMAP
FFFFFF80
800000E0
80000010
80000008
9FFFFF08
900000C4
90000044
90000024
90000022
90000022
90000022
90000022
90000022
90000022
90000022
90000022
90000022
90000022
90000022
90000024
90000024
90000044
8FFFFF88
80000010
80000060
FFFFFF80
ENDCHAR
STARTCHAR 0065
ENCODING 101
SWIDTH 843 0
DWIDTH 27 0
BBX 25 26 1 0
BITMAP
FFFFFF80
80000080
80000080
80000080
8FFFFF80
90000000
90000000
90000000
90000000
90000000
90000000
8FFFFF00
80000100
80000100
8FFFFF00
90000000
90000000
90000000
90000000
90000000
90000000
90000000
8FFFFF80
80000080
80000080
FFFFFF80
ENDCHAR
STARTCHAR 0066
ENCODING 102
SWIDTH 812 0
DWIDTH 26 0
BBX 24 26 1 0
BITMAP
FFFFFF
800001
800001
800001
9FFFFE
900000
900000
900000
900000
900000
900000
900000
8FFFFE
800002
800002
9FFFFC
900000
900000
900000
900000
900000
900000
900000
900000
900000
F00000
ENDCHAR
STARTCHAR 0067
ENCODING 103
SWIDTH 1000 0
DWIDTH 32 0
BBX 30 27 1 0
BITMAP
03FFFF00
0C0000C0
10000030
20000008
43FFFF08
8C000088
88000044
90000044
90000044
90000038
90000000
90000000
90000000
9003FFFC
90040004
90040004
9003FFE4
90000024
90000024
90000024
90000024
88000044
44000048
43FFFF88
20000010
18000060
07FFFF80
ENDCHAR
STARTCHAR 0068
ENCODING 104
SWIDTH 1000 0
DWIDTH 32 0
BBX 30 26 1 0
BITMAP
F000003C
90000024
90000024
90000024
90000024
90000024
90000024
90000024
90000024
90000024
90000024
8FFFFFC4
80000004
80000004
8FFFFFE4
90000024
90000024
90000024
90000024
90000024
90000024
90000024
90000024
90000024
90000024
F000003C
ENDCHAR
STARTCHAR 0069
ENCODING 105
SWIDTH 218 0
DWIDTH 7 0
BBX 4 26 1 0
BITMAP
F0
90
90
90
90
90
90
90
90
90
90
90
90
90
90
90
90
90
90
90
90
90
90
90
90
F0
ENDCHAR
STARTCHAR 006A
ENCODING 106
SWIDTH 781 0
DWIDTH 25 0
BBX 24 26 0 0
BITMAP
000007
000009
000009
000009
000009
000009
000009
000009
000009
000009
000009
000009
000009
000009
000009
000009
700009
900009
880009
880009
880009
880009
470031
20FFC2
100004
0FFFF8
ENDCHAR
STARTCHAR 006B
ENCODING 107
SWIDTH 1000 0
DWIDTH 32 0
BBX 30 26 1 0
BITMAP
F00001FC
90000610
90000820
900030C0
90004100
90018600
90020800
90043000
90184000
90218000
90C20000
9F0C0000
80100000
80100000
9F8C0000
90420000
90318000
90084000
90063000
90010800
90008600
90006100
900010C0
90000C20
90000218
F00001FC
ENDCHAR
STARTCHAR 006C
ENCODING 108
SWIDTH 781 0
DWIDTH 25 0
BBX 23 26 1 0
BITMAP
F00000
900000
900000
900000
900000
900000
900000
900000
900000
900000
900000
900000
900000
900000
900000
900000
900000
900000
900000
900000
900000
900000
8FFFFE
800002
800002
FFFFFE
ENDCHAR
STARTCHAR 006D
ENCODING 109
SWIDTH 1312 0
DWIDTH 42 0
BBX 40 26 1 0
BITMAP
FE0000007F
8100000081
8100000101
8080000111
8840000231
9440000431
9420000451
9220000891
9110000891
9108001111
9088002211
9044002211
9042004411
9022004411
9011008811
9011011011
9008811011
9004422011
9004424011
9002244011
9001188011
9001088011
9000810011
9000420011
9000420011
F0003C000F
ENDCHAR
STARTCHAR 006E
ENCODING 110
SWIDTH 1031 0
DWIDTH 33 0
BBX 31 26 1 0
BITMAP
FC00001E
82000022
81000022
90800022
98400022
94200022
92100022
91080022
90840022
90420022
90210022
90108022
90088022
90044022
90022022
90011022
90008822
90004422
90002222
90001122
900008A2
90000462
90000222
90000202
90000102
F00000FE
ENDCHAR
STARTCHAR 006F
ENCODING 111
SWIDTH 1031 0
DWIDTH 33 0
BBX 31 27 1 0
BITMAP
03FFFFC0
1C000038
20000004
403FFC04
47C003C2
88000022
90000012
90000012
90000012
90000012
90000012
90000012
90000012
90000012
90000012
90000012
90000012
90000012
90000012
90000012
90000012
88000022
84000022
43FFFFC4
40000004
30000018
0FFFFFE0
ENDCHAR
STARTCHAR 0070
ENCODING 112
SWIDTH 937 0
DWIDTH 30 0
BBX 28 26 1 0
BITMAP
FFFFFF00
800000C0
80000040
80000020
9FFFFE20
90000110
90000110
90000090
90000090
90000090
90000110
90000120
90000220
8FFFFC20
80000040
80000380
9FFFFC00
90000000
90000000
90000000
90000000
90000000
90000000
90000000
90000000
F0000000
ENDCHAR
STARTCHAR 0071
ENCODING 113
SWIDTH 1156 0
DWIDTH 37 0
BBX 35 27 1 0
BITMAP
07FFFFF000
1800001C00
2000000200
41FFFFC200
4600003100
8800001100
8800000900
9000000900
9000000900
9000000900
9000000900
9000000900
9000000900
9000380900
9000440900
9000230900
900010C900
90000C2900
9000021900
9000018100
8800006100
4800001080
4600002060
21FFFFC340
10000004C0
0E00007800
01FFFF8000
ENDCHAR
STARTCHAR 0072
ENCODING 114
SWIDTH 937 0
DWIDTH 30 0
BBX 28 26 1 0
BITMAP
FFFFFF00
800000C0
80000040
80000020
9FFFFF10
90000090
90000090
90000090
90000090
90000090
90000090
90000090
90000110
8FFFFE20
800000C0
80000040
9FFFFF20
90000090
90000090
90000090
90000090
90000090
90000090
90000090
90000090
F00000F0
ENDCHAR
STARTCHAR 0073
ENCODING 115
SWIDTH 937 0
DWIDTH 30 0
BBX 27 27 1 0
BITMAP
07FFF800
18000700
20000080
407F8040
87807C40
98000240
90000240
90000220
90000220
900001C0
90000000
8C000000
43FFFF00
20000080
18000040
07FFFC20
00000220
00000120
F0000120
90000120
90000120
90000120
88000220
47FFFC20
40000040
30000180
0FFFFE00
ENDCHAR
STARTCHAR 0074
ENCODING 116
SWIDTH 906 0
DWIDTH 29 0
BBX 28 26 0 0
BITMAP
7FFFFFF0
80000010
80000010
80000010
7FF8FFE0
00088000
00088000
00088000
00088000
00088000
00088000
00088000
00088000
00088000
00088000
00088000
00088000
00088000
00088000
00088000
00088000
00088000
00088000
00088000
00088000
00078000
ENDCHAR
STARTCHAR 0075
ENCODING 117
SWIDTH 968 0
DWIDTH 31 0
BBX 29 26 1 0
BITMAP
F0000078
90000048
90000048
90000048
90000048
90000048
90000048
90000048
90000048
90000048
90000048
90000048
90000048
90000048
90000048
90000048
90000048
90000048
90000048
90000048
90000048
88000088
47000310
40FFFC10
30000060
0FFFFF80
ENDCHAR
STARTCHAR 0076
ENCODING 118
SWIDTH 1062 0
DWIDTH 34 0
BBX 32 26 1 0
BITMAP
F000001F
90000012
88000022
48000024
44000044
24000048
22000088
11000090
11000110
08800120
08800240
04400240
02400480
02200880
01200900
01101100
00901200
00882200
00442400
00444400
00224800
00228800
00119000
00081000
00082000
0007E000
ENDCHAR
STARTCHAR 0077
ENCODING 119
SWIDTH 1687 0
DWIDTH 54 0
BBX 52 26 1 0
BITMAP
F00001F00000F0
90000108000110
88000208000120
88000208000220
44000444000220
440004C4000240
240008A2000440
220008A2000480
12000912000880
11001111000900
09001209001100
08802208801200
08802408802200
04404404402400
04404404404400
02208802404400
02208802208800
01209001208800
01111001111000
01112001111000
008A2000892000
008A20008A2000
004440004A4000
00404000444000
00208000204000
001F80003F8000
ENDCHAR
STARTCHAR 0078
ENCODING 120
SWIDTH 1093 0
DWIDTH 35 0
BBX 33 26 1 0
BITMAP
7E00003F00
4200006200
2100004400
1080008800
0840011000
0420022000
0210044000
0108088000
0084110000
0042220000
0021440000
0018880000
0004100000
0008080000
0011840000
0021420000
0042210000
0084108000
01080C4000
0210022000
0420011000
0840008800
1080004400
2100002200
4200001100
FC00000F80
ENDCHAR
STARTCHAR 0079
ENCODING 121
SWIDTH 1031 0
DWIDTH 33 0
BBX 32 26 1 0
BITMAP
F800003F
84000042
42000044
21000088
10800110
08400220
04200440
02100880
01081100
00842200
00444400
00224C00
00118800
00081000
00042000
00024000
00024000
00024000
00024000
00024000
00024000
00024000
00024000
00024000
00024000
0003C000
ENDCHAR
STARTCHAR 007A
ENCODING 122
SWIDTH 937 0
DWIDTH 30 0
BBX 29 26 0 0
BITMAP
7FFFFFF0
40000010
40000010
40000010
3FFFFC10
00000860
00001080
00002100
00004200
00018400
00020800
00043000
00084000
00108000
00210000
00420000
01840000
02180000
04200000
08400000
10800000
21000000
43FFFFF8
80000008
80000008
7FFFFFF8
ENDCHAR
STARTCHAR 007B
ENCODING 123
SWIDTH 437 0
DWIDTH 14 0
BBX 12 26 1 0
BITMAP
03F0
0C10
1010
11F0
2200
2400
2400
2400
2400
2400
2400
C400
8400
8C00
E400
2400
2400
2400
2400
2400
2400
2200
11F0
1010
0C10
03F0
ENDCHAR
STARTCHAR 007C
ENCODING 124
SWIDTH 187 0
DWIDTH 6 0
BBX 4 33 1 -7
BITMAP
F0
90
90
90
90
90
90
90
90
90
90
90
90
90
90
90
90
90
90
90
90
90
90
90
90
90
90
90
90
90
90
90
F0
ENDCHAR
STARTCHAR 007D
ENCODING 125
SWIDTH 437 0
DWIDTH 14 0
BBX 12 26 1 0
BITMAP
FC00
8300
8080
F880
0440
0240
0240
0240
0240
0240
0240
0230
0210
0390
0270
0240
0240
0240
0240
0240
0240
0440
F880
8180
8200
F800
ENDCHAR
STARTCHAR 007E
ENCODING 126
SWIDTH 437 0
DWIDTH 14 0
BBX 12 6 1 20
BITMAP
70F0
4C90
8390
B810
A420
E3C0
ENDCHAR
STARTCHAR 00A0
ENCODING 160
SWIDTH 562 0
DWIDTH 18 0
BBX 0 0 0 0
BITMAP
ENDCHAR
STARTCHAR 00A1
ENCODING 161
SWIDTH 218 0
DWIDTH 7 0
BBX 5 26 1 -7
BITMAP
F8
88
88
88
88
F8
00
F8
88
88
88
88
88
88
88
88
88
88
88
88
88
88
88
88
88
F8
ENDCHAR
STARTCHAR 00A2
ENCODING 162
SWIDTH 968 0
DWIDTH 31 0
BBX 29 33 1 -4
BITMAP
000F8000
00088000
00088000
03F8FF80
1C0000E0
30000030
61F8FE10
46088188
48088048
D0088048
90088048
90088048
90088078
90088000
90088000
90088000
90088000
90088000
90088000
90088000
90088078
90088048
90088048
48088048
4C088048
43F8FF90
20000010
10000060
0FF8FF80
00088000
00088000
00088000
000F8000
ENDCHAR
STARTCHAR 00A3
ENCODING 163
SWIDTH 1031 0
DWIDTH 33 0
BBX 31 26 1 0
BITMAP
0003FF00
000E00C0
00100030
0023FE10
00440188
00480048
00900028
00900028
00A0003C
01200000
01200000
FF3FFF00
80000100
80000100
FC7FFF00
04800000
04800000
09000000
09000000
09000000
12000000
12000000
67FFFFFE
80000002
80000002
FFFFFFFE
ENDCHAR
STARTCHAR 00A5
ENCODING 165
SWIDTH 1062 0
DWIDTH 34 0
BBX 32 26 1 0
BITMAP
FC00001F
86000022
41000046
20800084
10400108
08200210
04100220
02080440
01040880
00821100
0FC121F8
0800C008
0FF80FF8
00041800
00021000
00012000
0FFF3FF8
08000008
0FFF3FF8
00012000
00012000
00012000
00012000
00012000
00012000
0001E000
ENDCHAR
STARTCHAR 00A7
ENCODING 167
SWIDTH 593 0
DWIDTH 19 0
BBX 17 33 1 -7
BITMAP
03E000
0C1800
11EC00
361400
280A00
280A00
280E00
240000
120000
090000
34C000
5A2000
919800
A06400
A01300
A00D00
900680
480280
240280
130280
088500
066900
011600
00C800
002400
001200
381200
280A00
280A00
141200
1B7400
0CD800
03E000
ENDCHAR
STARTCHAR 00A8
ENCODING 168
SWIDTH 406 0
DWIDTH 13 0
BBX 11 5 1 21
BITMAP
FBE0
8A20
8A20
8A20
FBE0
ENDCHAR
STARTCHAR 00A9
ENCODING 169
SWIDTH 875 0
DWIDTH 28 0
BBX 25 25 2 1
BITMAP
00FF0000
03C3E000
0E007000
18001800
30000C00
203E0600
60C38200
41808300
C100C100
83004100
82000180
82000180
82000180
82000180
82000180
82004100
C300C100
41008300
61818200
60FF0600
301C0400
18000800
0C003000
0700E000
01FF8000
ENDCHAR
STARTCHAR 00AA
ENCODING 170
SWIDTH 593 0
DWIDTH 19 0
BBX 18 18 1 9
BITMAP
01C000
022000
03A000
055000
065000
0A2800
142800
141400
281400
27E200
400100
5FFD00
A00280
E00180
000000
FFFFC0
800040
7FFF80
ENDCHAR
STARTCHAR 00AB
ENCODING 171
SWIDTH 593 0
DWIDTH 19 0
BBX 17 15 1 2
BITMAP
010080
070380
090480
110880
623100
8C4600
904800
A05000
984C00
C46200
231180
110880
090480
050280
030180
ENDCHAR
STARTCHAR 00AC
ENCODING 172
SWIDTH 843 0
DWIDTH 27 0
BBX 25 11 1 0
BITMAP
FFFFFF80
80000080
FFFFFE80
00000280
00000280
00000280
00000280
00000280
00000280
00000280
00000380
ENDCHAR
STARTCHAR 00AE
ENCODING 174
SWIDTH 875 0
DWIDTH 28 0
BBX 25 25 2 1
BITMAP
01FF8000
0700E000
0C003800
18001800
30000C00
61FF0600
41018200
C100C300
C1004100
81004100
8100C100
81018180
81FF0180
81038180
81008100
8100C100
C100C100
4100C300
6100C200
21004600
30000C00
18001800
0E007000
03E3C000
00FF0000
ENDCHAR
STARTCHAR 00B0
ENCODING 176
SWIDTH 343 0
DWIDTH 11 0
BBX 9 9 1 17
BITMAP
1E00
6100
9C80
A280
A280
A280
5C80
6100
1E00
ENDCHAR
STARTCHAR 00B1
ENCODING 177
SWIDTH 500 0
DWIDTH 16 0
BBX 15 19 1 0
BITMAP
0380
0280
0280
0280
0280
0280
FEFE
8002
FEFE
0280
0280
0280
0280
0280
0380
0000
0000
FFFE
FFFE
ENDCHAR
STARTCHAR 00B4
ENCODING 180
SWIDTH 281 0
DWIDTH 9 0
BBX 7 7 1 19
BITMAP
3E
24
44
48
90
90
E0
ENDCHAR
STARTCHAR 00B5
ENCODING 181
SWIDTH 625 0
DWIDTH 20 0
BBX 20 27 0 -8
BITMAP
700E00
500A00
500A00
500A00
500A00
500A00
500A00
500A00
500A00
500A00
500A00
500A00
500A00
500A00
500A00
481A30
4C7A20
47B960
7068C0
6F8480
600300
700000
900000
900000
900000
900000
600000
ENDCHAR
STARTCHAR 00B6
ENCODING 182
SWIDTH 593 0
DWIDTH 19 0
BBX 16 33 1 -7
BITMAP
07FF
1801
207D
4045
4045
8045
8045
8045
8045
8045
4045
4045
2045
1845
0F45
0145
0145
0145
0145
0145
0145
0145
0145
0145
0145
0145
0145
0145
0145
0145
0145
0145
01C7
ENDCHAR
STARTCHAR 00B7
ENCODING 183
SWIDTH 218 0
DWIDTH 7 0
BBX 5 6 1 10
BITMAP
F8
88
88
88
88
F8
ENDCHAR
STARTCHAR 00BA
ENCODING 186
SWIDTH 562 0
DWIDTH 18 0
BBX 16 18 1 9
BITMAP
3FFC
4002
9FFA
E005
C005
C005
C005
C005
C005
C005
C005
B01A
4FE2
3FFC
0000
FFFF
8001
7FFE
ENDCHAR
STARTCHAR 00BB
ENCODING 187
SWIDTH 593 0
DWIDTH 19 0
BBX 17 15 1 2
BITMAP
804000
E07000
904800
884400
462300
211880
190480
090480
110880
231180
C46200
884400
B05800
C06000
804000
ENDCHAR
STARTCHAR 00BF
ENCODING 191
SWIDTH 812 0
DWIDTH 26 0
BBX 24 26 1 -7
BITMAP
001E00
001200
001200
001200
001E00
000000
000000
000000
001E00
001200
001200
006200
0F8400
300800
41F000
8E0000
900000
90000F
900009
900009
900009
900009
500011
6FFFE2
38000C
0FFFF0
ENDCHAR
STARTCHAR 00C0
ENCODING 192
SWIDTH 1093 0
DWIDTH 35 0
BBX 33 34 1 0
BITMAP
0007C00000
0004400000
0002400000
0001200000
0000A00000
0000A00000
0000700000
0000000000
0003E00000
0004100000
0008100000
0008880000
0011880000
0012440000
0022220000
0024220000
0048110000
0088110000
0090088000
0110088000
0120044000
0220044000
0240022000
0440011000
0480011000
08FFFF8800
1000000800
1000000400
21FFFFE400
2200002200
4400001100
4400001100
8800000880
F000000780
ENDCHAR
STARTCHAR 00C1
ENCODING 193
SWIDTH 1093 0
DWIDTH 35 0
BBX 33 34 1 0
BITMAP
0001F00000
0002200000
0002400000
0004400000
0004800000
0005000000
0007000000
0000000000
0003E00000
0004100000
0008100000
0008880000
0011480000
0012440000
0022220000
0024220000
0048110000
0088110000
0090088000
0110048000
0120044000
0220024000
0240022000
0440011000
0480011000
08FFFF8800
1000000800
1000000400
21FFFFE400
2200002200
4400001100
4400001100
8800000880
F000000780
ENDCHAR
STARTCHAR 00C2
ENCODING 194
SWIDTH 1093 0
DWIDTH 35 0
BBX 33 32 1 1
BITMAP
0007F00000
0008100000
0008880000
0013480000
001C380000
0000000000
0003E00000
0004100000
0008100000
0011880000
0012480000
0022440000
0024240000
0044220000
0048120000
0088110000
0090088000
0110088000
0120044000
0220024000
0440022000
0440012000
0880011000
087FFE0800
1000000800
1000000400
23FFFFC400
2400002200
4400001200
8800001100
8800000880
F000000780
ENDCHAR
STARTCHAR 00C3
ENCODING 195
SWIDTH 1093 0
DWIDTH 35 0
BBX 34 33 1 0
BITMAP
000E1C0000
0009940000
0010740000
0017040000
0014880000
001C700000
0000000000
0003F00000
0004180000
0004080000
00088C0000
0009440000
0012260000
0012230000
0024110000
0024118000
0048088000
008808C000
0090044000
0110046000
0120022000
0220011000
0240011000
0440008800
087FFF8800
0800000400
1000000400
11FFFFE200
2200001100
2200001100
4400000880
4800000880
F8000007C0
ENDCHAR
STARTCHAR 00C4
ENCODING 196
SWIDTH 1093 0
DWIDTH 35 0
BBX 33 31 1 1
BITMAP
001FF80000
0011880000
0011880000
001F780000
0000000000
0003E00000
0004100000
0008100000
0008880000
0011480000
0012440000
0024240000
0044220000
0048110000
0088110000
0090088000
0110048000
0120044000
0220024000
0240022000
0440011000
0880011000
08FFFF8800
1000000800
1000000400
21FFFFC400
2200002200
4400001100
4400001100
8800000880
F000000780
ENDCHAR
STARTCHAR 00C5
ENCODING 197
SWIDTH 1062 0
DWIDTH 34 0
BBX 33 35 1 0
BITMAP
0001C00000
0006300000
0005D00000
000A500000
000A500000
0005D00000
0002200000
0001C00000
0000000000
0003E00000
0004100000
0008900000
0009880000
0012480000
0022440000
0024240000
0044220000
0048110000
0088110000
0090088000
0110048000
0120044000
0220024000
0240022000
0440011000
0880011000
087FFE0800
1000000800
1000000400
21FFFFE400
2200002200
4400001100
4800001100
8800000880
F000000780
ENDCHAR
STARTCHAR 00C6
ENCODING 198
SWIDTH 1750 0
DWIDTH 56 0
BBX 54 26 1 0
BITMAP
0000000FFFFFF8
00000010000008
00000020000008
00000044FFFFF8
0000008C800000
00000314800000
00000664800000
00000884800000
00001104800000
00002204800000
00004404800000
00009804FFFFF8
00012004000008
00064004000008
00088004FFFFF8
00110004800000
00220004800000
0047FFFC800000
00800000800000
01000000800000
027FFFFC800000
0CC00004800000
11000004FFFFFC
22000004000004
44000004000004
F8000007FFFFFC
ENDCHAR
STARTCHAR 00C7
ENCODING 199
SWIDTH 968 0
DWIDTH 31 0
BBX 29 33 1 -7
BITMAP
03FFFF00
1C0000C0
30000030
61FFFE10
46000198
48000048
C8000048
90000048
90000048
90000078
90000000
90000000
90000000
90000000
90000000
90000000
90000000
90000078
90000048
90000048
48000048
4C000048
43FFFF90
20000010
10000020
0FFF7FC0
00014000
00024000
00048000
00048000
00028000
00018000
00008000
ENDCHAR
STARTCHAR 00C8
ENCODING 200
SWIDTH 843 0
DWIDTH 27 0
BBX 25 34 1 0
BITMAP
003C0000
00220000
00120000
00120000
00090000
00050000
00030000
00000000
FFFFFF80
80000080
80000080
80000080
9FFFFF00
90000000
90000000
90000000
90000000
90000000
90000000
8FFFFF00
80000100
80000100
8FFFFF00
90000000
90000000
90000000
90000000
90000000
90000000
90000000
8FFFFF80
80000080
80000080
FFFFFF80
ENDCHAR
STARTCHAR 00C9
ENCODING 201
SWIDTH 843 0
DWIDTH 27 0
BBX 25 34 1 0
BITMAP
000F8000
00090000
00130000
00120000
00240000
00240000
00380000
00000000
FFFFFF00
80000100
80000100
80000100
8FFFFF00
88000000
88000000
88000000
88000000
88000000
88000000
8FFFFF00
80000100
80000100
8FFFFF00
88000000
88000000
88000000
88000000
88000000
88000000
88000000
8FFFFF80
80000080
80000080
FFFFFF80
ENDCHAR
STARTCHAR 00CA
ENCODING 202
SWIDTH 843 0
DWIDTH 27 0
BBX 25 32 1 1
BITMAP
003F8000
00404000
00464000
008A4000
00F1E000
00000000
FFFFFF80
80000080
80000080
80000080
9FFFFF00
90000000
90000000
90000000
90000000
90000000
90000000
8FFFFF00
80000100
80000100
8FFFFF00
90000000
90000000
90000000
90000000
90000000
90000000
90000000
8FFFFF80
80000080
80000080
FFFFFF80
ENDCHAR
STARTCHAR 00CB
ENCODING 203
SWIDTH 843 0
DWIDTH 27 0
BBX 25 32 1 0
BITMAP
00F7C000
01144000
01144000
01144000
00F7C000
00000000
FFFFFF80
80000080
80000080
80000080
9FFFFF00
90000000
90000000
90000000
90000000
90000000
90000000
8FFFFF00
80000100
80000100
8FFFFF00
90000000
90000000
90000000
90000000
90000000
90000000
90000000
8FFFFF80
80000080
80000080
FFFFFF80
ENDCHAR
STARTCHAR 00CC
ENCODING 204
SWIDTH 218 0
DWIDTH 7 0
BBX 7 34 0 0
BITMAP
F8
48
44
24
14
0A
06
00
38
48
48
48
48
48
48
48
48
48
48
48
48
48
48
48
48
48
48
48
48
48
48
48
48
38
ENDCHAR
STARTCHAR 00CD
ENCODING 205
SWIDTH 218 0
DWIDTH 7 0
BBX 7 34 1 0
BITMAP
3E
44
48
88
90
A0
C0
00
78
88
88
88
88
88
88
88
88
88
88
88
88
88
88
88
88
88
88
88
88
88
88
88
88
78
ENDCHAR
STARTCHAR 00CE
ENCODING 206
SWIDTH 218 0
DWIDTH 7 0
BBX 11 32 -2 1
BITMAP
3F80
4080
4C40
8A40
F1E0
0000
1E00
1200
1200
1200
1200
1200
1200
1200
1200
1200
1200
1200
1200
1200
1200
1200
1200
1200
1200
1200
1200
1200
1200
1200
1200
1E00
ENDCHAR
STARTCHAR 00CF
ENCODING 207
SWIDTH 218 0
DWIDTH 7 0
BBX 10 32 -2 0
BITMAP
FBC0
8C40
8C40
8C40
FBC0
0000
1E00
1200
1200
1200
1200
1200
1200
1200
1200
1200
1200
1200
1200
1200
1200
1200
1200
1200
1200
1200
1200
1200
1200
1200
1200
1E00
ENDCHAR
STARTCHAR 00D1
ENCODING 209
SWIDTH 1031 0
DWIDTH 33 0
BBX 31 32 1 1
BITMAP
000FE000
00081000
00119000
00128800
001C7800
00000000
FC00001E
82000022
81000022
80800022
98400022
94200022
92100022
91080022
90840022
90420022
90210022
90108022
90084022
90042022
90021022
90011022
90008822
90004422
90002222
90001122
900008A2
90000462
90000222
90000102
90000082
F000007E
ENDCHAR
STARTCHAR 00D2
ENCODING 210
SWIDTH 1031 0
DWIDTH 33 0
BBX 31 34 1 0
BITMAP
000F8000
00088000
00044000
00024000
00014000
00012000
0000E000
03FFFFC0
1C000038
20000004
403FFC04
47C003C2
88000022
90000012
90000012
90000012
90000012
90000012
90000012
90000012
90000012
90000012
90000012
90000012
90000012
90000012
90000012
90000012
88000022
84000022
43FFFFC4
40000004
30000018
0FFFFFE0
ENDCHAR
STARTCHAR 00D3
ENCODING 211
SWIDTH 1031 0
DWIDTH 33 0
BBX 31 34 1 0
BITMAP
0003E000
00024000
00044000
00048000
00090000
00090000
000E0000
03FFFFC0
1C000038
20000004
403FFC04
47C003C2
88000022
90000012
90000012
90000012
90000012
90000012
90000012
90000012
90000012
90000012
90000012
90000012
90000012
90000012
90000012
90000012
88000022
84000022
43FFFFC4
40000004
30000018
0FFFFFE0
ENDCHAR
STARTCHAR 00D4
ENCODING 212
SWIDTH 1031 0
DWIDTH 33 0
BBX 31 32 1 0
BITMAP
000FE000
00082000
00111000
00229000
003C7800
03FFFFC0
1C000038
20000004
403FFC04
47C003C2
88000022
90000012
90000012
90000012
90000012
90000012
90000012
90000012
90000012
90000012
90000012
90000012
90000012
90000012
90000012
90000012
88000022
84000022
43FFFFC4
40000004
30000018
0FFFFFE0
ENDCHAR
STARTCHAR 00D5
ENCODING 213
SWIDTH 1031 0
DWIDTH 33 0
BBX 31 33 1 0
BITMAP
001C3800
00132800
0020E800
002E0800
00291000
0038E000
00000000
03FFFFC0
1C000038
2000000C
41FFFF84
46000066
88000022
88000012
90000012
90000012
90000012
90000012
90000012
90000012
90000012
90000012
90000012
90000012
90000012
90000012
90000012
88000012
48000064
47FFFFC4
40000008
30000010
0FFFFFE0
ENDCHAR
STARTCHAR 00D6
ENCODING 214
SWIDTH 1031 0
DWIDTH 33 0
BBX 31 32 1 0
BITMAP
003EF800
00228800
00228800
00228800
003EF800
00000000
07FFFFE0
1C000038
2000000C
41FFFF84
46000066
88000022
88000012
90000012
90000012
90000012
90000012
90000012
90000012
90000012
90000012
90000012
90000012
90000012
90000012
90000012
90000012
48000064
47FFFFC4
40000008
30000010
0FFFFFE0
ENDCHAR
STARTCHAR 00D8
ENCODING 216
SWIDTH 1093 0
DWIDTH 35 0
BBX 32 33 1 -4
BITMAP
00000002
0000000E
00000011
07FFFFE2
18000004
20000008
47FFFF84
4C000116
8800026A
9000048B
90000909
90001209
90002409
90004809
90009009
90012009
90024009
90048009
90090009
90120009
90240009
90480009
90880009
91100009
8A200012
4C400062
407FFF84
20000018
23FFFFE0
44000000
88000000
50000000
20000000
ENDCHAR
STARTCHAR 00D9
ENCODING 217
SWIDTH 968 0
DWIDTH 31 0
BBX 29 34 1 0
BITMAP
000F0000
00088000
00048000
00048000
00024000
00014000
0000C000
00000000
F0000078
90000048
90000048
90000048
90000048
90000048
90000048
90000048
90000048
90000048
90000048
90000048
90000048
90000048
90000048
90000048
90000048
90000048
90000048
90000048
90000048
88000088
47000310
40FFFC10
30000060
0FFFFF80
ENDCHAR
STARTCHAR 00DA
ENCODING 218
SWIDTH 968 0
DWIDTH 31 0
BBX 29 34 1 0
BITMAP
0003C000
00044000
00088000
00090000
00090000
00120000
000C0000
00000000
F0000078
90000048
90000048
90000048
90000048
90000048
90000048
90000048
90000048
90000048
90000048
90000048
90000048
90000048
90000048
90000048
90000048
90000048
90000048
90000048
90000048
88000088
47000310
40FFFC10
30000060
0FFFFF80
ENDCHAR
STARTCHAR 00DB
ENCODING 219
SWIDTH 968 0
DWIDTH 31 0
BBX 29 32 1 1
BITMAP
001FC000
00102000
00232000
00249000
00387000
00000000
F0000078
90000048
90000048
90000048
90000048
90000048
90000048
90000048
90000048
90000048
90000048
90000048
90000048
90000048
90000048
90000048
90000048
90000048
90000048
90000048
90000048
88000088
87000310
40FFFC10
20000060
1FFFFF80
ENDCHAR
STARTCHAR 00DC
ENCODING 220
SWIDTH 968 0
DWIDTH 31 0
BBX 29 32 1 0
BITMAP
003EF800
00228800
00228800
00228800
003EF800
00000000
F0000078
90000048
90000048
90000048
90000048
90000048
90000048
90000048
90000048
90000048
90000048
90000048
90000048
90000048
90000048
90000048
90000048
90000048
90000048
90000048
90000048
98000048
4C000188
43FFFE10
20000020
1FFFFFC0
ENDCHAR
STARTCHAR 00DF
ENCODING 223
SWIDTH 968 0
DWIDTH 31 0
BBX 29 26 1 0
BITMAP
0FFFFF80
300000C0
60000060
47FFFF20
88000110
90000090
90000090
90000090
90000090
90000090
90000190
9FFFFF20
800000C0
80000060
9FFFFF90
900000C8
90000048
90000048
90000048
90000048
90000048
90000088
93FFFF10
92000010
92000060
F3FFFF80
ENDCHAR
STARTCHAR 00E0
ENCODING 224
SWIDTH 1093 0
DWIDTH 35 0
BBX 33 34 1 0
BITMAP
0007C00000
0004400000
0002200000
0001200000
0000A00000
0000900000
0000700000
0000000000
0003E00000
0004100000
0008100000
0008880000
0011480000
0012440000
0022220000
0024220000
0048110000
0088110000
0090088000
0110048000
0120044000
0220024000
0240022000
0440011000
0480011000
08FFFF8800
1000000800
1000000400
21FFFFE400
2200002200
4400001100
4400001100
8800000880
F000000780
ENDCHAR
STARTCHAR 00E1
ENCODING 225
SWIDTH 1093 0
DWIDTH 35 0
BBX 33 34 1 0
BITMAP
0001E00000
0002200000
0002400000
0004800000
0004800000
0009000000
0006000000
0000000000
0003E00000
0004100000
0008100000
0008880000
0011480000
0012440000
0022220000
0024220000
0048110000
0088110000
0090088000
0110048000
0120044000
0220024000
0240022000
0440011000
0480011000
08FFFF8800
1000000800
1000000400
21FFFFE400
2200002200
4400001100
4400001100
8800000880
F000000780
ENDCHAR
STARTCHAR 00E2
ENCODING 226
SWIDTH 1093 0
DWIDTH 35 0
BBX 33 32 1 0
BITMAP
0007F00000
0008100000
0008900000
0011480000
001E380000
0000000000
0003E00000
0004100000
0008100000
0008880000
0011480000
0012440000
0022220000
0024220000
0048110000
0088110000
0090088000
0110048000
0120044000
0220024000
0240022000
0440011000
0480011000
08FFFF8800
1000000800
1000000400
21FFFFE400
2200002200
4400001100
4400001100
8800000880
F000000780
ENDCHAR
STARTCHAR 00E3
ENCODING 227
SWIDTH 1093 0
DWIDTH 35 0
BBX 34 33 1 0
BITMAP
000E1C0000
0011940000
0020740000
0027040000
0024880000
003C700000
0000000000
0003F00000
0002080000
0004080000
0004C40000
0009440000
0011220000
0012210000
0024110000
0024088000
0048088000
0088044000
0090044000
0130022000
0120022000
0240011000
0440008800
0480008800
08FFFFC400
0800000400
1000000200
23FFFFE200
2400001100
4400000900
4800000880
8800000480
F0000003C0
ENDCHAR
STARTCHAR 00E4
ENCODING 228
SWIDTH 1093 0
DWIDTH 35 0
BBX 34 32 1 0
BITMAP
001F7C0000
0011440000
0011440000
0011440000
001F7C0000
0000000000
0003F00000
0004100000
0004080000
0008840000
0011440000
0012220000
0022220000
0024110000
0044110000
0048088000
0088044000
0090044000
0110022000
0220022000
0220011000
0440009000
0480008800
08FFFFC400
0800000400
1000000200
21FFFFE200
2200001100
4400000900
4400000880
8800000440
F8000003C0
ENDCHAR
STARTCHAR 00E5
ENCODING 229
SWIDTH 1093 0
DWIDTH 35 0
BBX 33 35 1 0
BITMAP
0001C00000
0006300000
0005D00000
000A500000
000A500000
0005D00000
0002200000
0001C00000
0000000000
0003E00000
0004100000
0008900000
0009880000
0012480000
0022440000
0024240000
0044220000
0048110000
0088110000
0090088000
0110048000
0120044000
0220024000
0240022000
0440011000
0880011000
087FFE0800
1000000800
1000000400
21FFFFE400
2200002200
4400001100
4800001100
8800000880
F000000780
ENDCHAR
STARTCHAR 00E6
ENCODING 230
SWIDTH 1750 0
DWIDTH 56 0
BBX 54 26 1 0
BITMAP
0000000FFFFFFC
00000018000004
00000030000004
00000040FFFFFC
0000008C800000
00000114800000
00000224800000
00000444800000
00001984800000
00002204800000
00004404800000
00008804FFFFF8
00011004000008
00022004000008
0004C004FFFFF8
00090004800000
00320004800000
0047FFFC800000
00800000800000
01000000800000
023FFFFC800000
04400004800000
09800004800000
320000047FFFFC
44000004000004
F8000007FFFFFC
ENDCHAR
STARTCHAR 00E7
ENCODING 231
SWIDTH 968 0
DWIDTH 31 0
BBX 29 33 1 -7
BITMAP
03FFFF00
0C0000C0
30000030
20000010
47FFFF88
48000088
88000048
88000048
90000048
90000078
90000000
90000000
90000000
90000000
90000000
90000000
90000000
90000078
90000048
88000048
48000048
48000048
47000188
20FFFE10
10000010
0F0001E0
00FEFE00
00028000
00048000
00048000
00048000
00030000
00010000
ENDCHAR
STARTCHAR 00E8
ENCODING 232
SWIDTH 843 0
DWIDTH 27 0
BBX 25 34 1 0
BITMAP
003C0000
00220000
00120000
00120000
00090000
00050000
00030000
00000000
FFFFFF80
80000080
80000080
80000080
8FFFFF00
88000000
88000000
88000000
88000000
88000000
88000000
8FFFFF00
80000100
80000100
8FFFFF00
88000000
88000000
88000000
88000000
88000000
88000000
88000000
8FFFFF80
80000080
80000080
FFFFFF80
ENDCHAR
STARTCHAR 00E9
ENCODING 233
SWIDTH 843 0
DWIDTH 27 0
BBX 25 34 1 0
BITMAP
000F8000
00110000
00120000
00240000
00240000
00280000
00300000
00000000
FFFFFF80
80000080
80000080
80000080
9FFFFF00
90000000
90000000
90000000
90000000
90000000
90000000
8FFFFF00
80000100
80000100
8FFFFF00
90000000
90000000
90000000
90000000
90000000
90000000
90000000
8FFFFF80
80000080
80000080
FFFFFF80
ENDCHAR
STARTCHAR 00EA
ENCODING 234
SWIDTH 843 0
DWIDTH 27 0
BBX 25 32 1 1
BITMAP
003F8000
00408000
00444000
008A4000
00F1E000
00000000
FFFFFF80
80000080
80000080
80000080
9FFFFF00
90000000
90000000
90000000
90000000
90000000
90000000
8FFFFF00
80000100
80000100
8FFFFF00
90000000
90000000
90000000
90000000
90000000
90000000
90000000
8FFFFF80
80000080
80000080
FFFFFF80
ENDCHAR
STARTCHAR 00EB
ENCODING 235
SWIDTH 843 0
DWIDTH 27 0
BBX 25 32 1 0
BITMAP
00F7C000
01144000
01144000
01144000
00F7C000
00000000
FFFFFF80
80000080
80000080
80000080
9FFFFF00
90000000
90000000
90000000
90000000
90000000
90000000
8FFFFF00
80000100
80000100
8FFFFF00
90000000
90000000
90000000
90000000
90000000
90000000
90000000
8FFFFF80
80000080
80000080
FFFFFF80
ENDCHAR
STARTCHAR 00EC
ENCODING 236
SWIDTH 218 0
DWIDTH 7 0
BBX 6 34 1 0
BITMAP
F0
88
48
48
24
14
0C
00
70
90
90
90
90
90
90
90
90
90
90
90
90
90
90
90
90
90
90
90
90
90
90
90
90
70
ENDCHAR
STARTCHAR 00ED
ENCODING 237
SWIDTH 218 0
DWIDTH 7 0
BBX 7 34 0 1
BITMAP
3E
22
44
48
50
90
60
00
78
48
48
48
48
48
48
48
48
48
48
48
48
48
48
48
48
48
48
48
48
48
48
48
48
78
ENDCHAR
STARTCHAR 00EE
ENCODING 238
SWIDTH 218 0
DWIDTH 7 0
BBX 11 32 -2 1
BITMAP
3F80
4080
4C40
9240
F1E0
0000
0E00
1200
1200
1200
1200
1200
1200
1200
1200
1200
1200
1200
1200
1200
1200
1200
1200
1200
1200
1200
1200
1200
1200
1200
1200
0E00
ENDCHAR
STARTCHAR 00EF
ENCODING 239
SWIDTH 218 0
DWIDTH 7 0
BBX 10 32 -2 0
BITMAP
FBC0
8C40
8C40
8C40
FBC0
0000
1E00
1200
1200
1200
1200
1200
1200
1200
1200
1200
1200
1200
1200
1200
1200
1200
1200
1200
1200
1200
1200
1200
1200
1200
1200
1E00
ENDCHAR
STARTCHAR 00F1
ENCODING 241
SWIDTH 1031 0
DWIDTH 33 0
BBX 31 33 1 0
BITMAP
000C3800
00334800
0040C800
004C1000
00531000
0030E000
00000000
FC00001E
82000022
81000022
80800022
98400022
94200022
92100022
91080022
90840022
90420022
90210022
90108022
90084022
90042022
90021022
90011022
90008822
90004422
90002222
90001122
900008A2
90000462
90000222
90000102
90000082
F000007E
ENDCHAR
STARTCHAR 00F2
ENCODING 242
SWIDTH 1031 0
DWIDTH 33 0
BBX 31 34 1 0
BITMAP
00078000
00044000
00044000
00024000
00012000
0000A000
0000E000
03FFFFC0
1C000038
20000004
403FFC04
47C003C2
88000022
90000012
90000012
90000012
90000012
90000012
90000012
90000012
90000012
90000012
90000012
90000012
90000012
90000012
90000012
90000012
88000022
84000022
43FFFFC4
40000004
30000018
0FFFFFE0
ENDCHAR
STARTCHAR 00F3
ENCODING 243
SWIDTH 1031 0
DWIDTH 33 0
BBX 31 34 1 0
BITMAP
0003E000
00024000
00044000
00048000
00050000
00090000
000E0000
03FFFFC0
1C000038
20000004
403FFC04
47C003C2
88000022
90000012
90000012
90000012
90000012
90000012
90000012
90000012
90000012
90000012
90000012
90000012
90000012
90000012
90000012
90000012
88000022
84000022
43FFFFC4
40000004
30000018
0FFFFFE0
ENDCHAR
STARTCHAR 00F4
ENCODING 244
SWIDTH 1031 0
DWIDTH 33 0
BBX 31 32 1 0
BITMAP
000FE000
00082000
00111000
00229000
003C7800
03FFFFC0
1C000038
20000004
403FFC04
47C003C2
88000022
90000012
90000012
90000012
90000012
90000012
90000012
90000012
90000012
90000012
90000012
90000012
90000012
90000012
90000012
90000012
88000022
84000022
43FFFFC4
40000004
30000018
0FFFFFE0
ENDCHAR
STARTCHAR 00F5
ENCODING 245
SWIDTH 1031 0
DWIDTH 33 0
BBX 32 33 1 0
BITMAP
000E1C00
00099400
00107400
00170400
00148800
001C7000
03FFFFE0
0C000018
10000004
201FFE02
43E001E2
4C000012
48000011
88000009
90000009
90000009
90000009
90000009
90000009
90000009
90000009
90000009
90000009
90000009
88000009
88000009
48000011
48000012
44000022
43FFFFC2
20000004
18000008
07FFFFF0
ENDCHAR
STARTCHAR 00F6
ENCODING 246
SWIDTH 1031 0
DWIDTH 33 0
BBX 32 32 1 0
BITMAP
003EF800
00228800
00228800
00228800
003EF800
07FFFFE0
18000018
20000004
403FFE02
87C001E2
88000012
90000011
90000009
90000009
90000009
90000009
90000009
90000009
90000009
90000009
90000009
90000009
90000009
90000009
90000011
90000011
90000012
88000022
47FFFFC2
40000004
30000008
0FFFFFF0
ENDCHAR
STARTCHAR 00F7
ENCODING 247
SWIDTH 750 0
DWIDTH 24 0
BBX 21 16 1 2
BITMAP
007000
008800
008800
008800
007000
000000
FFFFF8
800008
FFFFF8
000000
000000
007000
008800
008800
008800
007000
ENDCHAR
STARTCHAR 00F8
ENCODING 248
SWIDTH 1062 0
DWIDTH 34 0
BBX 32 33 1 -4
BITMAP
00000002
00000005
00000009
03FFFF92
1C000064
20000004
43FFFF82
4C000112
90000272
9000044A
90000889
90001109
90002209
90004409
90008809
90011009
90022009
90044009
90088009
90110009
90220009
90440009
90880012
91100012
4A200012
44400062
203FFF84
10000008
238003F0
647FFC00
48000000
50000000
20000000
ENDCHAR
STARTCHAR 00F9
ENCODING 249
SWIDTH 968 0
DWIDTH 31 0
BBX 29 34 1 0
BITMAP
000F8000
00088000
00048000
00024000
00014000
00014000
0000E000
00000000
F0000078
90000048
90000048
90000048
90000048
90000048
90000048
90000048
90000048
90000048
90000048
90000048
90000048
90000048
90000048
90000048
90000048
90000048
90000048
90000048
90000048
88000088
47000310
40FFFC10
30000060
0FFFFF80
ENDCHAR
STARTCHAR 00FA
ENCODING 250
SWIDTH 968 0
DWIDTH 31 0
BBX 29 34 1 0
BITMAP
0003C000
00044000
00088000
00090000
00090000
00120000
000C0000
00000000
F0000078
90000048
90000048
90000048
90000048
90000048
90000048
90000048
90000048
90000048
90000048
90000048
90000048
90000048
90000048
90000048
90000048
90000048
90000048
90000048
90000048
88000088
47000310
40FFFC10
30000060
0FFFFF80
ENDCHAR
STARTCHAR 00FB
ENCODING 251
SWIDTH 968 0
DWIDTH 31 0
BBX 29 32 1 1
BITMAP
001FC000
00102000
00232000
00249000
00387000
00000000
F0000078
90000048
90000048
90000048
90000048
90000048
90000048
90000048
90000048
90000048
90000048
90000048
90000048
90000048
90000048
90000048
90000048
90000048
90000048
90000048
90000048
88000088
87000310
40FFFC10
20000060
1FFFFF80
ENDCHAR
STARTCHAR 00FC
ENCODING 252
SWIDTH 968 0
DWIDTH 31 0
BBX 29 32 1 0
BITMAP
003DF000
00451000
00451000
00451000
003DF000
00000000
F0000078
90000048
90000048
90000048
90000048
90000048
90000048
90000048
90000048
90000048
90000048
90000048
90000048
90000048
90000048
90000048
90000048
90000048
90000048
90000048
90000048
88000088
87000310
40FFFC10
20000060
1FFFFF80
ENDCHAR
STARTCHAR 00FF
ENCODING 255
SWIDTH 1031 0
DWIDTH 33 0
BBX 32 32 1 0
BITMAP
001F7C00
00114400
00114400
00114400
001F7C00
00000000
F800001F
84000022
42000044
21000044
10800088
0C400110
02200220
01100440
00880880
00441100
00222200
00114400
00088800
00041000
00022000
00014000
00014000
00014000
00014000
00014000
00014000
00014000
00014000
00014000
00014000
0001C000
ENDCHAR
STARTCHAR 0152
ENCODING 338
SWIDTH 1531 0
DWIDTH 49 0
BBX 47 26 1 0
BITMAP
03FFFFFFFFFC
180000000004
200000000004
43FFFE7FFFFC
4C0002400000
880002400000
900002400000
900002400000
900002400000
900002400000
900002400000
9000027FFFFC
900002000004
900002000004
9000027FFFFC
900002400000
900002400000
900002400000
900002400000
900002400000
900002400000
4C0002400000
47FFFE7FFFFE
200000000002
180000000002
07FFFFFFFFFE
ENDCHAR
STARTCHAR 0153
ENCODING 339
SWIDTH 1531 0
DWIDTH 49 0
BBX 47 26 1 0
BITMAP
07FFFFFFFFFC
180000000004
200000000004
41FFFC7FFFFC
4E0004400000
900004400000
900004400000
900004400000
900004400000
900004400000
900004400000
9000047FFFFC
900004000004
900004000004
9000047FFFF8
900004400000
900004400000
900004400000
900004400000
900004400000
900004400000
480004400000
47FFFC7FFFFE
200000000002
180000000002
07FFFFFFFFFE
ENDCHAR
STARTCHAR 0178
ENCODING 376
SWIDTH 1062 0
DWIDTH 34 0
BBX 32 32 1 0
BITMAP
001FF800
00118800
00118800
00118800
001FF800
00000000
F800001F
84000022
62000044
11000088
08800110
04400220
02200440
01100880
00881100
00482200
00244400
00128800
00091000
00042000
00024000
00018000
00018000
00018000
00018000
00018000
00018000
00018000
00018000
00018000
00018000
00018000
ENDCHAR
STARTCHAR 0192
ENCODING 402
SWIDTH 437 0
DWIDTH 14 0
BBX 16 34 -3 -6
BITMAP
000E
0011
0018
0036
0030
0060
0060
0060
00A0
00A0
0FBC
0804
0F3C
0140
0140
0140
0280
0280
0280
0280
0280
0500
0500
0500
0500
0500
0A00
0A00
0A00
0C00
7400
8800
9000
6000
ENDCHAR
STARTCHAR 0394
ENCODING 916
SWIDTH 781 0
DWIDTH 25 0
BBX 23 26 1 0
BITMAP
000800
000800
001800
002400
002400
004200
004200
00B200
00D100
015100
018880
018880
028480
030440
050440
060220
0A0220
0C0120
140110
180110
280088
300088
500044
600044
9FFFC4
FFFFFE
ENDCHAR
STARTCHAR 03A9
ENCODING 937
SWIDTH 843 0
DWIDTH 27 0
BBX 24 22 1 0
BITMAP
00FF80
073FE0
18C0D8
310064
620022
420012
840011
840011
840011
840011
840011
440011
420022
220022
110044
0980C8
844111
83C2E1
FFC2FF
802201
802201
FFE3FF
ENDCHAR
STARTCHAR 03C0
ENCODING 960
SWIDTH 687 0
DWIDTH 22 0
BBX 19 19 2 -1
BITMAP
1FFFE0
200020
400020
B9EFE0
CA2800
8A2800
0A2800
122800
124800
144800
144800
0C4800
0C4860
144C60
2447A0
442040
482080
681B00
100400
ENDCHAR
STARTCHAR 2013
ENCODING 8211
SWIDTH 593 0
DWIDTH 19 0
BBX 17 4 1 9
BITMAP
FFFF80
800080
800080
FFFF80
ENDCHAR
STARTCHAR 2014
ENCODING 8212
SWIDTH 1062 0
DWIDTH 34 0
BBX 32 4 1 9
BITMAP
FFFFFFFF
80000001
80000001
FFFFFFFF
ENDCHAR
STARTCHAR 2018
ENCODING 8216
SWIDTH 250 0
DWIDTH 8 0
BBX 5 11 1 16
BITMAP
38
48
48
88
98
A0
98
88
88
88
F8
ENDCHAR
STARTCHAR 2019
ENCODING 8217
SWIDTH 250 0
DWIDTH 8 0
BBX 6 11 1 15
BITMAP
FC
84
84
84
84
E4
24
C4
88
88
F0
ENDCHAR
STARTCHAR 201A
ENCODING 8218
SWIDTH 250 0
DWIDTH 8 0
BBX 6 10 1 -5
BITMAP
FC
84
84
84
E4
24
C4
8C
88
F0
ENDCHAR
STARTCHAR 201C
ENCODING 8220
SWIDTH 437 0
DWIDTH 14 0
BBX 12 11 1 16
BITMAP
3870
4990
4910
8A10
9A30
A240
9A70
8A10
8A10
8A10
FBF0
ENDCHAR
STARTCHAR 201D
ENCODING 8221
SWIDTH 437 0
DWIDTH 14 0
BBX 12 11 1 15
BITMAP
FFF0
8610
8610
8610
8610
E790
2490
C710
8A20
8A20
F3C0
ENDCHAR
STARTCHAR 201E
ENCODING 8222
SWIDTH 468 0
DWIDTH 15 0
BBX 12 10 1 -5
BITMAP
FFF0
8610
8610
8610
E790
2490
C710
8E30
8A20
F3C0
ENDCHAR
STARTCHAR 2020
ENCODING 8224
SWIDTH 625 0
DWIDTH 20 0
BBX 18 33 1 -7
BITMAP
01C000
014000
014000
014000
014000
014000
014000
014000
FF7FC0
800040
FF7FC0
014000
014000
014000
014000
014000
014000
014000
014000
014000
014000
014000
014000
014000
014000
014000
014000
014000
014000
014000
014000
014000
01C000
ENDCHAR
STARTCHAR 2022
ENCODING 8226
SWIDTH 281 0
DWIDTH 9 0
BBX 7 7 1 8
BITMAP
3C
44
82
82
82
44
38
ENDCHAR
STARTCHAR 2026
ENCODING 8230
SWIDTH 812 0
DWIDTH 26 0
BBX 25 5 0 1
BITMAP
FC3E1F80
84221080
84221080
84221080
7C3E0F80
ENDCHAR
STARTCHAR 2122
ENCODING 8482
SWIDTH 781 0
DWIDTH 25 0
BBX 21 12 2 13
BITMAP
FFB018
083018
082828
082828
082828
082448
082448
082448
082288
082288
082288
082108
ENDCHAR
STARTCHAR 2202
ENCODING 8706
SWIDTH 562 0
DWIDTH 18 0
BBX 16 26 1 0
BITMAP
1FC0
27F0
1878
001C
0014
000A
000A
000B
0009
0009
0009
07C9
1B79
2411
4809
4811
9012
9012
9012
9014
9024
5028
4858
2450
1BC0
0680
ENDCHAR
STARTCHAR 220F
ENCODING 8719
SWIDTH 937 0
DWIDTH 30 0
BBX 28 28 1 -3
BITMAP
FFFFFFF0
21FFF080
11001100
11001100
11001100
11001100
11001100
11001100
11001100
11001100
11001100
11001100
11001100
11001100
11001100
11001100
11001100
11001100
11001100
11001100
11001100
11001100
11001100
11001100
11001100
11001100
11801180
FFF0FFF0
ENDCHAR
STARTCHAR 2211
ENCODING 8721
SWIDTH 812 0
DWIDTH 26 0
BBX 23 29 1 -2
BITMAP
FFFFF8
400008
23FFE8
220038
110008
088008
048008
044000
022000
011000
008800
004400
004200
002200
001200
001400
002800
005000
006000
00A000
014000
028002
050006
0A0006
14000A
27FFF2
400002
800002
FFFFFE
ENDCHAR
STARTCHAR 221A
ENCODING 8730
SWIDTH 593 0
DWIDTH 19 0
BBX 16 30 1 -3
BITMAP
0003
0003
0003
0003
0003
0003
0006
0006
0006
0006
0006
0006
080C
340C
FC0C
4A0C
060C
050C
0314
0298
0198
0158
00D8
00B8
0048
0050
0030
0030
0010
0010
ENDCHAR
STARTCHAR 221E
ENCODING 8734
SWIDTH 875 0
DWIDTH 28 0
BBX 26 12 1 3
BITMAP
1F003E00
30C0C300
43213C80
DCD2C2C0
A02D0140
A0120140
A0120140
B02D0140
58D2C280
4F213C80
30C0C300
1F003E00
ENDCHAR
STARTCHAR 222B
ENCODING 8747
SWIDTH 343 0
DWIDTH 11 0
BBX 10 32 0 -4
BITMAP
0380
0640
0640
0F80
0A00
0A00
0A00
0A00
0A00
0A00
0A00
0A00
0A00
0A00
0A00
0A00
0A00
0A00
0A00
0A00
0A00
0A00
0A00
0A00
0A00
0A00
0A00
0A00
0C00
6C00
9800
7000
ENDCHAR
STARTCHAR 2248
ENCODING 8776
SWIDTH 718 0
DWIDTH 23 0
BBX 21 11 1 5
BITMAP
1FC000
203838
4707D0
90F020
600FC0
000000
0F0000
30F078
4F8F90
907820
6007C0
ENDCHAR
STARTCHAR 2260
ENCODING 8800
SWIDTH 656 0
DWIDTH 21 0
BBX 19 22 1 -2
BITMAP
000400
000700
000A00
000A00
001400
001400
FFE7E0
800020
FFDFE0
009000
00A000
014000
014000
FE7FE0
800020
FCFFE0
050000
0A0000
0A0000
140000
140000
080000
ENDCHAR
STARTCHAR 2264
ENCODING 8804
SWIDTH 531 0
DWIDTH 17 0
BBX 15 19 1 1
BITMAP
0006
001A
0064
0198
0E60
3380
CC00
9000
CC00
3300
0CC0
0330
00CC
0032
000E
0000
0000
FFFE
FFFE
ENDCHAR
STARTCHAR 2265
ENCODING 8805
SWIDTH 562 0
DWIDTH 18 0
BBX 16 21 1 1
BITMAP
8000
F000
CC00
3300
0CC0
0338
00C6
0031
0011
0066
0198
0660
1980
6600
9800
E000
0000
0000
FFFF
8001
FFFF
ENDCHAR
STARTCHAR 25CA
ENCODING 9674
SWIDTH 562 0
DWIDTH 18 0
BBX 15 26 1 0
BITMAP
0380
0240
0440
05A0
0AA0
0A50
1450
1428
2828
2814
5014
500A
A00A
A00A
500A
5014
2814
2828
1828
1450
0C50
0A60
06A0
05C0
0240
0380
ENDCHAR
ENDFONT
